<?xml version="1.0" encoding="UTF-8" standalone="no"?><!DOCTYPE svg PUBLIC "-//W3C//DTD SVG 1.1//EN" "http://www.w3.org/Graphics/SVG/1.1/DTD/svg11.dtd"><svg width="100%" height="100%" viewBox="0 0 2250 2250" version="1.1" xmlns="http://www.w3.org/2000/svg" xmlns:xlink="http://www.w3.org/1999/xlink" xml:space="preserve" xmlns:serif="http://www.serif.com/" style="fill-rule:evenodd;clip-rule:evenodd;stroke-linejoin:round;stroke-miterlimit:2;"><g><path d="M923.831,439.229c0,-84.925 -68.948,-153.873 -153.874,-153.873c-84.925,-0 -153.874,68.948 -153.874,153.873l0,955.902c0,84.926 68.949,153.874 153.874,153.874c84.926,0 153.874,-68.948 153.874,-153.874l0,-955.902Z" style="fill:#79bcb8;"/><path d="M1278.87,825.251c-0,-84.925 -68.949,-153.874 -153.874,-153.874c-84.925,0 -153.874,68.949 -153.874,153.874l0,569.88c0,84.926 68.949,153.874 153.874,153.874c84.925,0 153.874,-68.948 153.874,-153.874l-0,-569.88Z" style="fill:#009383;"/><path d="M1278.87,439.229c-0,-84.925 -68.949,-153.873 -153.874,-153.873c-84.925,-0 -153.874,68.948 -153.874,153.873l0,18.569c0,84.925 68.949,153.874 153.874,153.874c84.925,-0 153.874,-68.949 153.874,-153.874l-0,-18.569Z" style="fill:#009383;"/><path d="M1633.92,439.229c-0,-84.925 -68.949,-153.873 -153.874,-153.873c-84.926,-0 -153.874,68.948 -153.874,153.873l-0,955.902c-0,84.926 68.948,153.874 153.874,153.874c84.925,0 153.874,-68.948 153.874,-153.874l-0,-955.902Z" style="fill:#2b8280;"/><path d="M1125,1964.64c67.175,0 235.112,-191.015 201.525,-229.218c-16.794,-19.102 -109.16,-62.727 -201.525,-62.727c-92.365,0 -184.731,43.625 -201.525,62.727c-33.587,38.203 134.35,229.218 201.525,229.218Z" style="fill:#195764;"/></g></svg>