<?xml version="1.0" encoding="UTF-8" standalone="no"?>
<!DOCTYPE svg PUBLIC "-//W3C//DTD SVG 1.1//EN" "http://www.w3.org/Graphics/SVG/1.1/DTD/svg11.dtd">
<svg width="100%" height="100%" viewBox="0 0 1080 1080" version="1.1" xmlns="http://www.w3.org/2000/svg" xmlns:xlink="http://www.w3.org/1999/xlink" xml:space="preserve" xmlns:serif="http://www.serif.com/" style="fill-rule:evenodd;clip-rule:evenodd;stroke-linejoin:round;stroke-miterlimit:2;">
    <g transform="matrix(1.19359,0,0,1.19359,-104.54,-19.3714)">
        <g transform="matrix(2.25548,0,0,1.06144,-51.3031,-47.8789)">
            <path d="M226.295,226.808C226.295,194.632 214.001,168.51 198.859,168.51C183.717,168.51 171.424,194.632 171.424,226.808L171.424,588.969C171.424,621.145 183.717,647.267 198.859,647.267C214.001,647.267 226.295,621.145 226.295,588.969L226.295,226.808Z" style="fill:rgb(121,188,184);"/>
        </g>
        <g transform="matrix(2.25548,0,0,0.737191,91.4763,161.998)">
            <path d="M226.295,252.45C226.295,206.122 214.001,168.51 198.859,168.51C183.717,168.51 171.424,206.122 171.424,252.45L171.424,563.327C171.424,609.655 183.717,647.267 198.859,647.267C214.001,647.267 226.295,609.655 226.295,563.327L226.295,252.45Z" style="fill:rgb(0,147,131);"/>
        </g>
        <g transform="matrix(2.25548,0,0,0.274099,91.4763,84.796)">
            <path d="M226.295,394.267C226.295,269.668 214.001,168.51 198.859,168.51C183.717,168.51 171.424,269.668 171.424,394.267L171.424,421.51C171.424,546.109 183.717,647.267 198.859,647.267C214.001,647.267 226.295,546.109 226.295,421.51L226.295,394.267Z" style="fill:rgb(0,147,131);"/>
        </g>
        <g transform="matrix(2.25548,0,0,1.06144,234.256,-47.8789)">
            <path d="M226.295,226.808C226.295,194.632 214.001,168.51 198.859,168.51C183.717,168.51 171.424,194.632 171.424,226.808L171.424,588.969C171.424,621.145 183.717,647.267 198.859,647.267C214.001,647.267 226.295,621.145 226.295,588.969L226.295,226.808Z" style="fill:rgb(43,130,128);"/>
        </g>
        <g transform="matrix(2.03014,0,0,1.55011,-307.779,-586.71)">
            <path d="M417.597,898.657C430.904,898.657 464.17,849.101 457.517,839.19C454.19,834.234 435.894,822.917 417.597,822.917C399.301,822.917 381.004,834.234 377.677,839.19C371.024,849.101 404.291,898.657 417.597,898.657Z" style="fill:rgb(25,87,100);"/>
        </g>
    </g>
</svg>
